<svg width="1024" height="1024" viewBox="0 0 1024 1024" fill="none" xmlns="http://www.w3.org/2000/svg" role="img" aria-labelledby="title desc">
  <title id="title">FawxzzyFitness app icon source</title>
  <desc id="desc">A cyber sigil inspired by Filipino tribal motifs with a central glyph, halo, and dumbbell cross bars.</desc>
  <rect width="1024" height="1024" rx="220" fill="#0B0F0D"/>

  <circle cx="512" cy="512" r="342" stroke="#D9F5EE" stroke-width="42"/>
  <circle cx="512" cy="512" r="286" stroke="#1B4332" stroke-width="12"/>

  <path d="M512 220L560 320H464L512 220Z" fill="#1D8B75"/>
  <path d="M512 804L560 704H464L512 804Z" fill="#1D8B75"/>

  <path d="M512 294L560 392H650L584 468L612 574L512 512L412 574L440 468L374 392H464L512 294Z" stroke="#D9F5EE" stroke-width="28" stroke-linejoin="round"/>

  <path d="M512 334V700" stroke="#D9F5EE" stroke-width="46" stroke-linecap="round"/>
  <path d="M448 418L512 350L576 418" stroke="#1D8B75" stroke-width="24" stroke-linecap="round" stroke-linejoin="round"/>
  <path d="M448 614L512 684L576 614" stroke="#1D8B75" stroke-width="24" stroke-linecap="round" stroke-linejoin="round"/>

  <rect x="232" y="470" width="560" height="84" rx="42" fill="#D9F5EE"/>
  <rect x="190" y="456" width="56" height="112" rx="20" fill="#D9F5EE"/>
  <rect x="778" y="456" width="56" height="112" rx="20" fill="#D9F5EE"/>
  <rect x="150" y="440" width="34" height="144" rx="14" fill="#1D8B75"/>
  <rect x="840" y="440" width="34" height="144" rx="14" fill="#1D8B75"/>

  <path d="M392 330L512 254L632 330L512 406L392 330Z" stroke="#D9F5EE" stroke-width="20" stroke-linejoin="round"/>
  <path d="M392 694L512 618L632 694L512 770L392 694Z" stroke="#D9F5EE" stroke-width="20" stroke-linejoin="round"/>
</svg>
